<svg width="177" height="56" viewBox="0 0 177 56" fill="none" xmlns="http://www.w3.org/2000/svg">
<g clip-path="url(#clip0_85_523)">
<path d="M8.79437 0H0V8.85606H8.79437V0Z" fill="white"/>
<path fill-rule="evenodd" clip-rule="evenodd" d="M15.2048 29.3787V29.1666V27.4696V26.6211V26.515V26.0908V24.8181V23.8635V23.2272V22.962V22.4317V21.7953V21.6893C15.2048 21.5832 15.2048 21.4772 15.2048 21.3711C15.2048 21.159 15.2048 20.9469 15.2048 20.7347C15.2048 20.2575 15.2048 19.7802 15.2048 19.3029C15.2048 18.9317 15.2048 18.5605 15.2578 18.2423C15.3637 17.1817 15.6286 16.2802 16.3703 15.5908C16.6352 15.3257 17.006 15.0605 17.3769 14.8484C17.6418 14.6893 18.0126 14.5832 18.4365 14.5302C20.5556 14.106 24.317 14.3711 26.1713 14.3711L44.1838 14.4241H44.3428H44.8725H49.1108V14.7423V15.6438V16.9166V17.712V18.8257V19.5681V19.8863H47.4685L33.5882 19.9393H32.5286H28.9261H28.2374H26.6481H26.4891H25.9594H21.6151H21.1913V20.1514V20.8938V22.3787V22.6969V23.4393V23.8635V24.8711V26.1969V26.5681V26.7802V27.3105V29.2196V29.7499V29.962V30.3863V31.3938V31.9772V32.5605V32.6135V33.409V34.2044H22.7807H25.1647H31.8399H34.4888H36.502V34.3105V35.212V35.265V36.1135V37.5454V38.2878V39.7726L24.2111 39.8257C23.4164 39.8257 22.6217 39.8787 21.88 39.8787C21.6151 39.8787 21.3503 39.8787 21.1383 39.8787C21.0324 39.8787 20.8734 39.8787 20.7675 39.8787C20.3966 39.8787 20.0258 39.8787 19.655 39.8257C19.0192 39.7726 18.4365 39.6666 17.9067 39.4544C17.6418 39.3484 17.3769 39.2423 17.165 39.0832C16.9531 38.9241 16.7412 38.765 16.5292 38.5529C16.4763 38.4999 16.4763 38.4999 16.4233 38.4469C16.2644 38.2347 16.1054 38.0226 15.9465 37.7575C15.7875 37.4393 15.6286 37.0681 15.5227 36.6438C15.4167 36.2726 15.3637 35.9544 15.3107 35.5302C15.2578 35.265 15.2578 34.9999 15.2578 34.7347C15.2578 34.5226 15.2578 34.3635 15.2048 34.1514C15.2048 34.0453 15.2048 33.8863 15.2048 33.7802C15.2048 33.6741 15.2048 33.6211 15.2048 33.515C15.2048 32.9847 15.2048 32.4544 15.2048 31.9241C15.2048 31.3938 15.2048 30.9166 15.2048 30.4393V29.962V29.5908V29.3787ZM36.6609 29.909H37.0318H38.0384H38.833H38.992H41.5349H43.1772V29.962V30.2272V31.0757V32.0302V33.9393V34.2044H42.5415H42.2766H38.7801V34.9999V35.265V36.1666V37.4393V37.8635V38.1287V38.1817V39.7196H43.1772V40.5681V41.0984V41.5757V43.5378V43.909V44.1741H41.5349H34.5948H32.7406H30.0387H29.7208H29.6678H29.4559H27.2838H24.6349H23.9992H22.7277H19.3901H15.5227H15.3637H15.2048V44.2272V44.3332V44.9166V46.1363V46.8787V48.1514V49.106V49.7953C15.9465 49.9014 20.2377 49.9014 25.0587 49.9014C25.9064 49.9014 26.807 49.9014 27.6546 49.9014C28.9261 49.9014 30.1976 49.9014 31.4691 49.9014C32.9525 49.9014 34.3299 49.9014 35.6014 49.9014H35.6544C35.8663 49.9014 36.0782 49.9014 36.2901 49.9014C36.7139 49.9014 37.1377 49.9014 37.5086 49.9014C38.3033 49.9014 38.992 49.9014 39.4688 49.9014C39.7866 49.9014 39.9986 49.9014 40.2105 49.9014C42.4885 49.9014 44.6606 50.1666 46.3559 49.5832C46.4619 49.5302 46.5149 49.5302 46.6208 49.4772C46.9387 49.3711 47.2036 49.212 47.4685 48.9999C47.6804 48.8408 47.8923 48.6287 48.1042 48.4166C48.528 47.9393 48.7929 47.356 48.9519 46.6666C49.0048 46.4544 49.0578 46.1893 49.1108 45.9772C49.1638 45.712 49.2168 45.3938 49.2168 45.0757C49.2168 44.8105 49.2697 44.5453 49.2697 44.2272V44.1741C49.2697 43.856 49.2697 43.5908 49.2697 43.2726C49.2697 42.7953 49.2697 42.265 49.2697 41.8408C49.2697 41.4166 49.2697 41.0453 49.2697 40.6211C49.2697 40.5681 49.2697 40.515 49.2697 40.462V39.7196V38.8181V38.1817V37.5454V37.1211V36.2726V34.8408V33.8332V33.6211V33.409V31.765V31.606C49.2697 31.4469 49.2697 31.2878 49.2697 31.0757C49.2697 31.0226 49.2697 30.9696 49.2697 30.8635C49.2697 30.5453 49.2697 30.2272 49.2697 29.909C49.2697 29.7499 49.2697 29.5908 49.2697 29.4317V29.3787C49.2697 28.8484 49.2168 28.3711 49.1638 27.9469C49.1638 27.7878 49.1108 27.6287 49.0578 27.4696C49.0578 27.4166 49.0578 27.3635 49.0048 27.3105C48.9519 27.0984 48.8989 26.8332 48.7929 26.6211C48.4751 25.8787 47.9453 25.2953 47.0447 24.8181C46.8857 24.712 46.6738 24.659 46.4619 24.606C46.3559 24.606 46.303 24.5529 46.197 24.5529C46.144 24.5529 46.091 24.5529 46.091 24.5529C44.3957 24.2347 41.6409 24.2878 39.6277 24.3408C39.0979 24.3408 38.6211 24.3408 38.2503 24.3408H38.0913L24.1051 24.3938V24.8711V26.3029V26.9393V28.4241V29.0605V29.909H26.5421H27.4957H36.6609ZM55.5741 35.5302C55.5741 35.4772 55.5741 35.4772 55.5741 35.5302V35.5302ZM55.5741 23.1741V22.4317V22.2726V21.8484V21.5302V20.9999V19.462V18.7196V18.4544V17.606V16.7575V16.1741V14.4241V13.4696V12.5681V12.3029V11.4014V10.8711V10.1287V8.85596H37.0848H36.0252H12.8208H11.9731H8.79443V10.0757V11.5605V12.8863V14.7423V15.5908V18.2423V18.8787V20.9469V21.7423V21.7953V22.5378V23.7044V23.7575V24.1287V24.5529V26.3029V26.7802V27.1514V27.5757V30.3332V31.2347V32.5075V33.515V33.6741V34.5226V35.4772V36.4317V38.765V39.4544V39.7726V41.0453V41.4696V42.5832V43.4847V44.1211V44.2272V44.9696V49.9014V50.5378V50.6438V51.1741V51.2272V52.3408V53.0832V54.1438V54.6741V54.7802V55.5757V55.8938H29.244H32.1048H32.5816H33.6942H34.171H35.2835H38.5682H38.939H39.2569H41.429H41.6409H43.1772H55.5212V54.356V53.5605V53.5075V52.9241V51.9696V50.909V49.6363V48.6817V48.3635V48.3105V48.2575V46.4014V45.2878V45.0757V44.6514V42.265V40.5681V38.8181V37.8105V37.6514V37.3332V37.1211V36.6438V35.5302V34.9469V34.4696V33.409V33.3029V33.0378V32.8257V32.0302V29.2196V28.4241V28.212V27.3105V26.7802V25.9847V24.5529V23.7575V23.1741H55.5741Z" fill="white"/>
<path fill-rule="evenodd" clip-rule="evenodd" d="M67.4412 55.8936V51.7042H65.9048V51.1739H69.6662V51.7042H68.1299V55.8936H67.4412ZM70.196 55.8936V51.1739H70.7788V52.8708C71.0437 52.5527 71.3615 52.3936 71.7854 52.3936C72.0502 52.3936 72.2622 52.4466 72.4211 52.5527C72.633 52.6587 72.739 52.7648 72.8449 52.9769C72.9509 53.136 72.9509 53.4012 72.9509 53.7193V55.8936H72.3681V53.7193C72.3681 53.4542 72.3151 53.2421 72.1562 53.083C72.0502 52.9769 71.8383 52.8708 71.6264 52.8708C71.4675 52.8708 71.3086 52.9239 71.1496 53.0299C70.9907 53.136 70.8847 53.2421 70.8318 53.4012C70.7788 53.5602 70.7258 53.7724 70.7258 54.0375V55.8936H70.196ZM76.1825 54.833L76.7653 54.886C76.6593 55.2572 76.5004 55.5224 76.2355 55.6815C75.9706 55.8936 75.6528 55.9466 75.2819 55.9466C74.8051 55.9466 74.3813 55.7875 74.1164 55.4693C73.7985 55.1512 73.6926 54.7269 73.6926 54.1966C73.6926 53.6133 73.8515 53.189 74.1164 52.8708C74.4343 52.5527 74.8051 52.3936 75.2819 52.3936C75.7587 52.3936 76.1296 52.5527 76.3945 52.8708C76.6593 53.189 76.8183 53.6133 76.8183 54.1966C76.8183 54.2496 76.8183 54.3027 76.8183 54.3557H74.2753C74.2753 54.7269 74.3813 55.0451 74.5932 55.2042C74.8051 55.4163 75.017 55.5224 75.2819 55.5224C75.4938 55.5224 75.6528 55.4693 75.8117 55.3633C75.9706 55.2572 76.0766 55.0451 76.1825 54.833ZM74.2753 53.8784H76.1825C76.1825 53.6133 76.0766 53.4012 75.9706 53.2421C75.8117 53.0299 75.5468 52.9239 75.2289 52.9239C74.964 52.9239 74.7521 53.0299 74.5402 53.189C74.3813 53.3481 74.2753 53.5602 74.2753 53.8784ZM79.4142 55.8936V51.1739H82.8048V51.7042H79.997V53.136H82.5929V53.6663H79.997V55.2572H82.9108V55.7875H79.4142V55.8936ZM83.7054 55.8936V51.1739H84.2882V55.8936H83.7054ZM87.5199 54.833L88.1026 54.886C87.9967 55.2572 87.8377 55.5224 87.5728 55.6815C87.308 55.8936 86.9901 55.9466 86.6192 55.9466C86.1424 55.9466 85.7186 55.7875 85.4537 55.4693C85.1359 55.1512 85.0299 54.7269 85.0299 54.1966C85.0299 53.6133 85.1888 53.189 85.4537 52.8708C85.7716 52.5527 86.1424 52.3936 86.6192 52.3936C87.096 52.3936 87.4669 52.5527 87.7318 52.8708C87.9967 53.189 88.1556 53.6133 88.1556 54.1966C88.1556 54.2496 88.1556 54.3027 88.1556 54.3557H85.6127C85.6127 54.7269 85.7186 55.0451 85.9305 55.2042C86.1424 55.4163 86.3543 55.5224 86.6192 55.5224C86.8312 55.5224 86.9901 55.4693 87.149 55.3633C87.3609 55.2572 87.4669 55.0451 87.5199 54.833ZM85.6656 53.8784H87.5728C87.5728 53.6133 87.4669 53.4012 87.3609 53.2421C87.202 53.0299 86.9371 52.9239 86.6192 52.9239C86.3543 52.9239 86.1424 53.0299 85.9305 53.189C85.7716 53.3481 85.6656 53.5602 85.6656 53.8784ZM91.1224 54.6739L91.7051 54.7269C91.6522 55.0981 91.4932 55.4163 91.2283 55.6284C90.9634 55.8405 90.6456 55.9466 90.2747 55.9466C89.7979 55.9466 89.4271 55.7875 89.1622 55.4693C88.8973 55.1512 88.7384 54.7269 88.7384 54.1436C88.7384 53.7724 88.7913 53.4542 88.8973 53.189C89.0033 52.9239 89.2152 52.7118 89.4801 52.5527C89.7449 52.3936 90.0098 52.3405 90.2747 52.3405C90.6456 52.3405 90.9635 52.4466 91.1754 52.6057C91.3873 52.8178 91.5462 53.083 91.6522 53.4012L91.0694 53.5072C91.0164 53.2951 90.9105 53.083 90.8045 52.9769C90.6456 52.8708 90.4866 52.8178 90.3277 52.8178C90.0098 52.8178 89.7979 52.9239 89.639 53.136C89.4801 53.3481 89.3741 53.6663 89.3741 54.1436C89.3741 54.6208 89.4801 54.939 89.639 55.1512C89.7979 55.3633 90.0628 55.4693 90.3277 55.4693C90.5396 55.4693 90.7515 55.4163 90.9105 55.2572C90.9635 55.1512 91.0694 54.939 91.1224 54.6739ZM93.4534 55.4163L93.5064 55.9466C93.3475 55.9996 93.1885 55.9996 93.0826 55.9996C92.8707 55.9996 92.7117 55.9466 92.6058 55.8936C92.4998 55.8405 92.3939 55.7345 92.3409 55.6284C92.2879 55.5224 92.2879 55.3102 92.2879 54.939V52.9769H91.8641V52.4996H92.2879V51.6512L92.8707 51.2799V52.4996H93.4534V52.9239H92.8707V54.939C92.8707 55.0981 92.8707 55.2042 92.9236 55.2572C92.9236 55.3102 92.9766 55.3633 93.0296 55.3633C93.0826 55.4163 93.1356 55.4163 93.2415 55.4163C93.2415 55.4163 93.3475 55.4163 93.4534 55.4163ZM93.9832 55.8936V52.4996H94.513V53.0299C94.6719 52.7648 94.7779 52.6057 94.8838 52.5527C94.9898 52.4996 95.0957 52.4466 95.2547 52.4466C95.4666 52.4466 95.6255 52.4996 95.8374 52.6057L95.6255 53.136C95.4666 53.083 95.3606 53.0299 95.2017 53.0299C95.0957 53.0299 94.9368 53.083 94.8838 53.136C94.7779 53.189 94.7249 53.2951 94.6719 53.4542C94.6189 53.6663 94.566 53.8784 94.566 54.1436V55.9466H93.9832V55.8936ZM96.2083 51.8633V51.2269H96.791V51.8633H96.2083ZM96.2083 55.8936V52.4996H96.791V55.9466H96.2083V55.8936ZM99.9168 54.6739L100.5 54.7269C100.447 55.0981 100.288 55.4163 100.023 55.6284C99.7578 55.8405 99.4399 55.9466 99.0691 55.9466C98.5923 55.9466 98.2215 55.7875 97.9566 55.4693C97.6917 55.1512 97.5327 54.7269 97.5327 54.1436C97.5327 53.7724 97.5857 53.4542 97.6917 53.189C97.7976 52.9239 98.0095 52.7118 98.2744 52.5527C98.5393 52.3936 98.8042 52.3405 99.0691 52.3405C99.4399 52.3405 99.7578 52.4466 99.9697 52.6057C100.182 52.8178 100.341 53.083 100.447 53.4012L99.8638 53.5072C99.8108 53.2951 99.7048 53.083 99.5989 52.9769C99.4399 52.8708 99.281 52.8178 99.1221 52.8178C98.8042 52.8178 98.5923 52.9239 98.4334 53.136C98.2744 53.3481 98.1685 53.6663 98.1685 54.1436C98.1685 54.6208 98.2744 54.939 98.4334 55.1512C98.5923 55.3633 98.8572 55.4693 99.1221 55.4693C99.334 55.4693 99.5459 55.4163 99.7048 55.2572C99.7578 55.1512 99.8638 54.939 99.9168 54.6739ZM103.201 55.4693C102.989 55.6284 102.778 55.7875 102.566 55.8405C102.354 55.8936 102.142 55.9466 101.93 55.9466C101.559 55.9466 101.241 55.8405 101.082 55.6815C100.87 55.5224 100.764 55.2572 100.764 54.9921C100.764 54.833 100.817 54.6739 100.87 54.5148C100.923 54.3557 101.029 54.2496 101.188 54.1966C101.294 54.0905 101.453 54.0375 101.612 53.9845C101.718 53.9315 101.877 53.9315 102.142 53.8784C102.619 53.8254 102.937 53.7724 103.201 53.6663C103.201 53.6133 103.201 53.5602 103.201 53.5072C103.201 53.2951 103.148 53.083 103.042 53.0299C102.884 52.9239 102.672 52.8178 102.407 52.8178C102.142 52.8178 101.93 52.8708 101.824 52.9769C101.718 53.083 101.612 53.2421 101.559 53.5072L100.976 53.4542C101.029 53.189 101.135 53.0299 101.241 52.8708C101.347 52.7118 101.506 52.6057 101.771 52.4996C101.983 52.3936 102.248 52.3936 102.566 52.3936C102.884 52.3936 103.095 52.4466 103.254 52.4996C103.413 52.5527 103.572 52.6587 103.678 52.7648C103.784 52.8708 103.837 52.9769 103.837 53.136C103.837 53.2421 103.89 53.4012 103.89 53.6663V54.4618C103.89 54.9921 103.89 55.3633 103.943 55.4693C103.943 55.6284 103.996 55.7345 104.102 55.8936H103.307C103.254 55.7875 103.201 55.6284 103.201 55.4693ZM103.148 54.1966C102.937 54.3027 102.619 54.3557 102.195 54.4087C101.93 54.4618 101.771 54.4618 101.665 54.5148C101.559 54.5678 101.506 54.6208 101.453 54.7269C101.4 54.833 101.347 54.886 101.347 54.9921C101.347 55.1512 101.4 55.2572 101.506 55.3633C101.612 55.4693 101.771 55.5224 102.036 55.5224C102.248 55.5224 102.46 55.4693 102.619 55.3633C102.778 55.2572 102.937 55.1512 102.989 54.939C103.042 54.833 103.095 54.6208 103.095 54.3557L103.148 54.1966ZM104.632 55.8936V51.1739H105.215V55.8936H104.632ZM107.81 54.4087L108.393 54.3557C108.446 54.5678 108.499 54.7799 108.605 54.939C108.711 55.0981 108.87 55.2042 109.082 55.3102C109.294 55.4163 109.559 55.4693 109.824 55.4693C110.036 55.4693 110.247 55.4163 110.459 55.3633C110.618 55.3102 110.777 55.2042 110.883 55.0451C110.989 54.939 111.042 54.7799 111.042 54.6208C111.042 54.4618 110.989 54.3557 110.936 54.2496C110.83 54.1436 110.724 54.0375 110.512 53.9845C110.406 53.9315 110.089 53.8784 109.665 53.7724C109.241 53.6663 108.923 53.5602 108.764 53.4542C108.552 53.3481 108.393 53.189 108.287 53.0299C108.181 52.8708 108.128 52.6587 108.128 52.4466C108.128 52.1815 108.181 51.9693 108.34 51.7572C108.499 51.5451 108.658 51.386 108.923 51.2799C109.188 51.1739 109.453 51.1208 109.771 51.1208C110.142 51.1208 110.406 51.1739 110.671 51.2799C110.936 51.386 111.148 51.5451 111.307 51.7572C111.466 51.9693 111.519 52.2345 111.519 52.4996L110.936 52.5527C110.883 52.2345 110.777 52.0224 110.618 51.8633C110.406 51.7042 110.142 51.6512 109.771 51.6512C109.4 51.6512 109.135 51.7042 108.923 51.8633C108.764 52.0224 108.658 52.1815 108.658 52.3405C108.658 52.4996 108.711 52.6587 108.817 52.7648C108.923 52.8708 109.241 52.9769 109.771 53.083C110.3 53.189 110.618 53.2951 110.83 53.4012C111.095 53.5072 111.307 53.6663 111.413 53.8784C111.519 54.0905 111.625 54.3027 111.625 54.5678C111.625 54.833 111.572 55.0451 111.413 55.2572C111.254 55.4693 111.042 55.6284 110.777 55.7875C110.512 55.8936 110.195 55.9466 109.877 55.9466C109.453 55.9466 109.082 55.8936 108.817 55.7345C108.552 55.6284 108.287 55.4163 108.128 55.1512C107.863 54.9921 107.81 54.7269 107.81 54.4087ZM112.102 54.1966C112.102 53.5602 112.261 53.083 112.632 52.7648C112.949 52.4996 113.267 52.3936 113.691 52.3936C114.168 52.3936 114.539 52.5527 114.857 52.8708C115.174 53.189 115.28 53.6133 115.28 54.1436C115.28 54.5678 115.227 54.939 115.069 55.2042C114.963 55.4693 114.751 55.6284 114.486 55.7875C114.221 55.9466 113.956 55.9996 113.638 55.9996C113.161 55.9996 112.79 55.8405 112.473 55.5224C112.261 55.2042 112.102 54.7799 112.102 54.1966ZM112.684 54.1966C112.684 54.6208 112.79 54.939 112.949 55.2042C113.161 55.4163 113.373 55.5224 113.691 55.5224C113.956 55.5224 114.221 55.4163 114.433 55.2042C114.645 54.9921 114.698 54.6739 114.698 54.1966C114.698 53.7724 114.592 53.4542 114.433 53.2421C114.221 53.0299 114.009 52.9239 113.691 52.9239C113.426 52.9239 113.161 53.0299 112.949 53.2421C112.79 53.4542 112.684 53.7724 112.684 54.1966ZM115.969 55.8936V51.1739H116.552V55.8936H115.969ZM119.678 55.8936V55.3633C119.413 55.7345 119.042 55.9466 118.618 55.9466C118.406 55.9466 118.247 55.8936 118.035 55.8405C117.876 55.7875 117.717 55.6815 117.664 55.5754C117.558 55.4693 117.506 55.3102 117.506 55.1512C117.506 55.0451 117.453 54.833 117.453 54.6208V52.4996H118.035V54.4087C118.035 54.7269 118.035 54.939 118.088 55.0451C118.141 55.2042 118.194 55.3102 118.3 55.4163C118.406 55.5224 118.565 55.5224 118.724 55.5224C118.883 55.5224 119.042 55.4693 119.201 55.3633C119.36 55.2572 119.466 55.1512 119.519 54.9921C119.572 54.833 119.625 54.6208 119.625 54.3027V52.4996H120.207V55.9466H119.678V55.8936ZM122.379 55.4163L122.432 55.9466C122.274 55.9996 122.115 55.9996 122.009 55.9996C121.797 55.9996 121.638 55.9466 121.532 55.8936C121.426 55.8405 121.32 55.7345 121.267 55.6284C121.214 55.5224 121.214 55.3102 121.214 54.939V52.9769H120.79V52.4996H121.214V51.6512L121.797 51.2799V52.4996H122.379V52.9239H121.797V54.939C121.797 55.0981 121.797 55.2042 121.85 55.2572C121.85 55.3102 121.903 55.3633 121.956 55.3633C122.009 55.4163 122.062 55.4163 122.168 55.4163C122.168 55.4163 122.274 55.4163 122.379 55.4163ZM122.962 51.8633V51.2269H123.545V51.8633H122.962ZM122.962 55.8936V52.4996H123.545V55.9466H122.962V55.8936ZM124.181 54.1966C124.181 53.5602 124.34 53.083 124.711 52.7648C125.028 52.4996 125.346 52.3936 125.77 52.3936C126.247 52.3936 126.618 52.5527 126.936 52.8708C127.253 53.189 127.359 53.6133 127.359 54.1436C127.359 54.5678 127.306 54.939 127.148 55.2042C127.042 55.4693 126.83 55.6284 126.565 55.7875C126.3 55.9466 126.035 55.9996 125.717 55.9996C125.24 55.9996 124.869 55.8405 124.552 55.5224C124.34 55.2042 124.181 54.7799 124.181 54.1966ZM124.816 54.1966C124.816 54.6208 124.922 54.939 125.081 55.2042C125.293 55.4163 125.505 55.5224 125.823 55.5224C126.088 55.5224 126.353 55.4163 126.565 55.2042C126.777 54.9921 126.83 54.6739 126.83 54.1966C126.83 53.7724 126.724 53.4542 126.565 53.2421C126.353 53.0299 126.141 52.9239 125.823 52.9239C125.558 52.9239 125.293 53.0299 125.081 53.2421C124.869 53.4542 124.816 53.7724 124.816 54.1966ZM128.101 55.8936V52.4996H128.631V52.9769C128.896 52.6057 129.267 52.3936 129.743 52.3936C129.955 52.3936 130.114 52.4466 130.326 52.4996C130.485 52.5527 130.644 52.6587 130.697 52.7648C130.803 52.8708 130.856 53.0299 130.856 53.189C130.856 53.2951 130.909 53.5072 130.909 53.7724V55.8936H130.326V53.8254C130.326 53.6133 130.326 53.4012 130.273 53.2951C130.22 53.189 130.167 53.083 130.008 53.0299C129.902 52.9769 129.743 52.9239 129.585 52.9239C129.32 52.9239 129.108 52.9769 128.949 53.136C128.79 53.2951 128.684 53.6133 128.684 54.0375V55.8936H128.101Z" fill="white"/>
<path fill-rule="evenodd" clip-rule="evenodd" d="M65.6399 47.8861H71.2556V46.6664H67.1233V44.6513H70.8317V43.3785H67.1233V41.7346H71.0966V40.5149H65.6399V47.8861ZM78.5136 47.8861H79.944V40.5149H78.5136V47.8861ZM90.4866 46.1891C90.4337 46.4543 90.2747 46.9316 89.586 46.9316C88.7913 46.9316 88.4205 46.2422 88.4205 45.6058H91.97C92.023 44.0149 91.4403 42.424 89.4271 42.424C87.7318 42.424 86.9901 43.8028 86.9901 45.2346C86.9901 45.6588 87.096 46.1891 87.308 46.7194C87.8907 47.9391 89.1092 47.9922 89.586 47.9922C91.3343 47.9922 91.8111 46.7194 91.9171 46.4013L90.4866 46.1891ZM88.4735 44.7573C88.4735 44.0679 88.8443 43.5376 89.533 43.5376C89.745 43.5376 90.5396 43.6437 90.5926 44.7573H88.4735ZM103.837 44.121C103.625 43.4316 103.148 42.424 101.453 42.424C99.44 42.424 98.8572 43.9619 98.8572 45.2346C98.8572 46.1361 99.228 48.0452 101.4 48.0452C102.725 48.0452 103.572 47.4088 103.89 46.0831L102.513 45.871C102.46 46.1891 102.301 46.8785 101.506 46.8785C100.711 46.8785 100.341 46.2952 100.341 45.1285C100.341 44.8103 100.341 43.5376 101.506 43.5376C102.195 43.5376 102.407 44.0149 102.46 44.3861L103.837 44.121ZM113.32 42.5831H112.367V40.674L110.936 41.5225V42.5831H110.3V43.6967H110.936V46.03C110.936 46.8255 110.936 47.1437 111.148 47.5149C111.36 47.9391 111.89 48.0452 112.367 48.0452C112.526 48.0452 113.002 48.0452 113.479 47.8331L113.373 46.7194H113.32C113.161 46.7725 113.002 46.8255 112.79 46.8255C112.42 46.8255 112.42 46.5603 112.42 45.8179V43.6437H113.373V42.5831H113.32ZM121.691 47.8861V46.2422C121.691 44.7573 121.744 43.6967 122.644 43.6967C122.909 43.6967 123.174 43.8558 123.28 43.9088L123.704 42.6891C123.439 42.53 123.068 42.424 122.803 42.424C122.221 42.424 121.903 42.7952 121.585 43.3255V42.5831H120.26V47.9391H121.691V47.8861ZM130.379 47.8861H131.81V42.5831H130.379V47.8861ZM130.379 41.8407H131.81V40.5149H130.379V41.8407ZM143.942 44.121C143.73 43.4316 143.253 42.424 141.558 42.424C139.544 42.424 138.962 43.9619 138.962 45.2346C138.962 46.1361 139.333 48.0452 141.505 48.0452C142.829 48.0452 143.677 47.4088 143.995 46.0831L142.617 45.871C142.564 46.1891 142.405 46.8785 141.611 46.8785C140.816 46.8785 140.445 46.2952 140.445 45.1285C140.445 44.8103 140.445 43.5376 141.611 43.5376C142.299 43.5376 142.511 44.0149 142.564 44.3861L143.942 44.121ZM152.047 44.174C152.153 43.9088 152.259 43.4846 152.948 43.4846C153.902 43.4846 153.901 43.9088 153.901 44.227V44.3861C153.637 44.4922 153.319 44.5982 152.524 44.7043C151.782 44.8634 150.564 45.0755 150.564 46.4013C150.564 47.3028 151.253 47.9922 152.312 47.9922C153.16 47.9922 153.69 47.5679 153.954 47.3028L154.06 47.5679C154.113 47.727 154.113 47.78 154.166 47.8861H155.544C155.332 47.4619 155.279 47.1967 155.226 46.5073C155.226 46.1891 155.226 44.7573 155.226 44.4391C155.226 43.4846 155.226 42.424 152.948 42.424C151.359 42.424 150.882 43.0603 150.617 43.9619L152.047 44.174ZM153.954 45.6058C153.954 46.0831 153.954 46.4543 153.637 46.6664C153.425 46.8255 153.16 46.9846 152.789 46.9846C152.259 46.9846 151.994 46.5603 151.994 46.2422C151.994 45.7649 152.577 45.6058 152.842 45.5528C152.895 45.5528 153.266 45.4467 153.319 45.4467C153.637 45.3937 153.796 45.3407 153.901 45.2876V45.6058H153.954ZM162.749 47.8861H164.179V40.5149H162.749V47.8861ZM171.278 46.3482C171.331 46.5603 171.437 46.9846 171.861 47.3558C172.497 47.8861 173.344 47.9922 173.821 47.9922C175.57 47.9922 176.258 47.0376 176.258 46.1891C176.258 45.0225 175.199 44.7573 174.245 44.4922C173.874 44.3861 173.344 44.28 173.027 44.174C172.868 44.121 172.762 44.0149 172.762 43.8558C172.762 43.4316 173.503 43.4316 173.715 43.4316C173.98 43.4316 174.563 43.4316 174.722 44.0679L176.046 43.8028C175.728 42.7422 174.934 42.371 173.662 42.371C172.55 42.371 171.437 42.7952 171.437 44.0149C171.437 45.2876 172.603 45.5528 174.245 45.924C174.563 45.977 174.828 46.0831 174.828 46.4013C174.828 46.9846 173.927 46.9846 173.821 46.9846C173.344 46.9846 172.868 46.8255 172.656 46.1361L171.278 46.3482Z" fill="white"/>
<path fill-rule="evenodd" clip-rule="evenodd" d="M77.3481 31.2347C77.3481 31.2347 76.9242 31.2347 76.0236 31.2347C75.123 31.2347 74.1694 31.2347 73.0568 31.2347C72.4741 31.2347 71.9443 31.2347 71.3615 31.2347C70.8317 31.2347 70.3549 31.2347 69.9311 31.2347C68.7656 31.2347 67.759 30.8104 66.9114 29.962C66.0637 29.1135 65.6399 28.1059 65.6399 26.9392C65.6399 25.7726 66.0637 24.765 66.9114 23.9165C67.759 23.068 68.7656 22.6438 69.9311 22.6438H81.6923V25.8786H69.9311C69.6662 25.8786 69.4013 25.9847 69.1894 26.1968C68.9775 26.4089 68.8716 26.6741 68.8716 26.9392C68.8716 27.2044 68.9775 27.4695 69.1894 27.6816C69.4013 27.8938 69.6662 27.9998 69.9311 27.9998C69.9311 27.9998 70.302 27.9998 71.0966 27.9998C71.8913 27.9998 72.739 27.9998 73.6396 27.9998C74.4872 27.9998 75.2819 27.9998 75.9706 27.9998C76.7123 27.9998 77.1361 27.9998 77.2951 27.9998C78.4606 27.9998 79.4672 28.4241 80.3148 29.2726C81.1625 30.121 81.5863 31.1286 81.5863 32.2953C81.5863 33.462 81.1625 34.4695 80.3148 35.318C79.4672 36.1665 78.4606 36.5907 77.2951 36.5907H65.5869V33.3559H77.3481C77.6659 33.3559 77.8778 33.2498 78.0898 33.0377C78.3017 32.8256 78.4076 32.5604 78.4076 32.2953C78.4076 31.9771 78.3017 31.712 78.0898 31.5529C77.9308 31.3407 77.6659 31.2347 77.3481 31.2347ZM92.4468 36.5907H89.2152V31.2347H87.096C85.9305 31.2347 84.9239 30.8104 84.0763 30.015C83.2286 29.1665 82.8048 28.1589 82.8048 26.9923V22.6968H86.0365V26.9923C86.0365 27.2574 86.1424 27.5226 86.3543 27.7347C86.5663 27.9468 86.7782 28.0529 87.0431 28.1059H87.096H87.149H94.6189C94.9368 28.1059 95.1487 27.9998 95.3606 27.7877C95.5725 27.5756 95.6785 27.3104 95.6785 27.0453V22.6968H98.9102V26.9923C98.9102 28.1589 98.4863 29.1665 97.6387 30.015C96.791 30.8635 95.7845 31.2877 94.6189 31.2877H92.4998V36.5907H92.4468ZM99.9168 36.5907V22.6438H110.618C111.784 22.6438 112.79 23.068 113.638 23.9165C114.486 24.765 114.91 25.7726 114.91 26.9392V36.5907H111.678V26.9392C111.678 26.6741 111.572 26.4089 111.36 26.2498C111.148 26.0377 110.936 25.9316 110.671 25.9316H110.618H110.565H103.095V36.5907H99.9168ZM128.843 36.5907H120.26C119.095 36.5907 118.088 36.1665 117.241 35.318C116.393 34.4695 115.969 33.462 115.969 32.2953C115.969 32.2953 115.969 32.0301 115.969 31.4468C115.969 30.8635 115.969 30.2801 115.969 29.5907C115.969 28.9544 115.969 28.4241 115.969 27.8938C115.969 27.3635 115.969 27.0453 115.969 26.9392C115.969 25.7726 116.393 24.765 117.241 23.9165C118.088 23.068 119.095 22.6438 120.26 22.6438H128.843V25.8786H120.26C120.207 25.8786 120.154 25.8786 120.154 25.9316C120.101 25.9316 120.048 25.9316 120.048 25.9847C119.837 26.0377 119.678 26.1438 119.466 26.3559C119.307 26.568 119.201 26.7801 119.201 26.9923V32.3483C119.201 32.6665 119.307 32.9316 119.519 33.1438C119.731 33.3559 119.995 33.4619 120.26 33.4619H128.843V36.5907ZM140.604 31.2347H133.134V36.5907H129.902V22.6438H133.134V27.9998H140.604V22.6438H143.836V36.5907H140.604V31.2347ZM144.895 22.6438C144.895 22.6438 145.425 22.6438 146.538 22.6438C147.65 22.6438 148.869 22.6438 150.193 22.6438C151.359 22.6438 152.418 22.6438 153.425 22.6438C154.431 22.6438 155.067 22.6438 155.385 22.6438C156.55 22.6438 157.557 23.068 158.405 23.9165C159.252 24.765 159.676 25.7726 159.676 26.9392C159.676 27.4165 159.623 27.8938 159.464 28.318C159.305 28.7423 159.146 29.1665 158.934 29.5377C159.252 29.9089 159.517 30.3332 159.676 30.8104C159.835 31.2877 159.941 31.765 159.941 32.2953V36.5377H156.709V32.2423C156.709 31.9771 156.603 31.765 156.444 31.5529C156.285 31.3407 156.074 31.2347 155.809 31.1816C155.756 31.1816 155.385 31.1816 154.59 31.1816C153.796 31.1816 152.948 31.1816 151.994 31.1816C151.041 31.1816 150.14 31.1816 149.345 31.1816C148.551 31.1816 148.127 31.1816 148.127 31.1816V36.5907H144.895V22.6438ZM155.438 25.8786H148.074V27.9998H155.438C155.703 27.9998 155.968 27.8938 156.18 27.6816C156.391 27.4695 156.497 27.2044 156.497 26.9392C156.497 26.621 156.391 26.3559 156.18 26.1968C155.968 25.9847 155.756 25.8786 155.438 25.8786ZM165.239 36.5907C164.073 36.5907 163.067 36.1665 162.219 35.318C161.371 34.4695 160.948 33.462 160.948 32.2953C160.948 32.2953 160.948 32.0301 160.948 31.4468C160.948 30.8635 160.948 30.2801 160.948 29.5907C160.948 28.9544 160.948 28.4241 160.948 27.8938C160.948 27.3635 160.948 27.0453 160.948 26.9392C160.948 25.7726 161.371 24.765 162.219 23.9165C163.067 23.068 164.073 22.6438 165.239 22.6438H172.709C173.874 22.6438 174.881 23.068 175.728 23.9165C176.576 24.765 177 25.7726 177 26.9392C177 27.0453 177 27.3635 177 27.8938C177 28.4241 177 29.0074 177 29.5907C177 30.2801 177 30.8635 177 31.4468C177 32.0301 177 32.2953 177 32.2953C177 33.462 176.576 34.4695 175.728 35.318C174.881 36.1665 173.874 36.5907 172.709 36.5907H165.239ZM172.709 33.3559C173.027 33.3559 173.239 33.2498 173.45 33.0377C173.662 32.8256 173.768 32.5604 173.768 32.2953V26.9392C173.768 26.6741 173.662 26.4619 173.503 26.3029C173.291 26.0907 173.133 25.9847 172.921 25.9316C172.868 25.9316 172.868 25.9316 172.815 25.9316C172.762 25.9316 172.762 25.9316 172.709 25.9316H165.239C165.186 25.9316 165.133 25.9847 165.027 25.9847C164.921 26.0377 164.868 26.0907 164.762 26.1438C164.603 26.2498 164.444 26.3559 164.338 26.515C164.232 26.6741 164.179 26.8332 164.179 27.0453V32.3483C164.179 32.6135 164.285 32.8786 164.497 33.0907C164.709 33.3029 164.921 33.4089 165.186 33.4619H165.239H165.292H172.709V33.3559Z" fill="white"/>
</g>
<defs>
<clipPath id="clip0_85_523">
<rect width="177" height="56" fill="white"/>
</clipPath>
</defs>
</svg>
