<svg width="51" height="51" viewBox="0 0 51 51" fill="none" xmlns="http://www.w3.org/2000/svg">
<path d="M8.01705 0H0V8.06534H8.01705V0Z" fill="#006EA1"/>
<path fill-rule="evenodd" clip-rule="evenodd" d="M13.8608 26.7555V26.5623V25.0169V24.2442V24.1476V23.7612V22.6021V21.7328V21.1533V20.9118V20.4288V19.8493V19.7527C13.8608 19.6561 13.8608 19.5595 13.8608 19.4629C13.8608 19.2697 13.8608 19.0765 13.8608 18.8834C13.8608 18.4487 13.8608 18.014 13.8608 17.5794C13.8608 17.2413 13.8608 16.9033 13.9091 16.6135C14.0057 15.6476 14.2472 14.8265 14.9233 14.1987C15.1648 13.9572 15.5029 13.7158 15.841 13.5226C16.0824 13.3777 16.4205 13.2811 16.8069 13.2328C18.7387 12.8464 22.1677 13.0879 23.858 13.0879L40.2785 13.1362H40.4233H40.9063H44.7699V13.426V14.247V15.4061V16.1305V17.1447V17.8209V18.1106H43.2728L30.6194 18.1589H29.6535H26.3694H25.7415H24.2927H24.1478H23.6648H19.7046H19.3182V18.3521V19.0283V20.3805V20.6703V21.3464V21.7328V22.6504V23.8578V24.1959V24.389V24.872V26.6106V27.0936V27.2868V27.6731V28.5908V29.122V29.6533V29.7015V30.426V31.1504H20.7671H22.9404H29.0256H31.4404H33.2756V31.247V32.068V32.1163V32.889V34.193V34.8692V36.2214L22.0711 36.2697C21.3466 36.2697 20.6222 36.318 19.9461 36.318C19.7046 36.318 19.4631 36.318 19.2699 36.318C19.1733 36.318 19.0285 36.318 18.9319 36.318C18.5938 36.318 18.2557 36.318 17.9177 36.2697C17.3381 36.2214 16.8069 36.1248 16.3239 35.9317C16.0824 35.8351 15.841 35.7385 15.6478 35.5936C15.4546 35.4487 15.2614 35.3038 15.0682 35.1106C15.0199 35.0623 15.0199 35.0623 14.9716 35.014C14.8267 34.8209 14.6819 34.6277 14.537 34.3862C14.3921 34.0964 14.2472 33.7584 14.1506 33.372C14.054 33.0339 14.0057 32.7442 13.9574 32.3578C13.9091 32.1163 13.9091 31.8748 13.9091 31.6334C13.9091 31.4402 13.9091 31.2953 13.8608 31.1021C13.8608 31.0055 13.8608 30.8606 13.8608 30.764C13.8608 30.6675 13.8608 30.6192 13.8608 30.5226C13.8608 30.0396 13.8608 29.5567 13.8608 29.0737C13.8608 28.5908 13.8608 28.1561 13.8608 27.7214V27.2868V26.9487V26.7555ZM33.4205 27.2385H33.7586H34.6762H35.4006H35.5455H37.8637H39.3608V27.2868V27.5283V28.301V29.1703V30.9089V31.1504H38.7813H38.5398H35.3523V31.8748V32.1163V32.9373V34.0964V34.4828V34.7243V34.7726V36.1731H39.3608V36.9459V37.4288V37.8635V39.6504V39.9885V40.23H37.8637H31.537H29.8466H27.3836H27.0938H27.0455H26.8523H24.8722H22.4574H21.8779H20.7188H17.6762H14.1506H14.0057H13.8608V40.2783V40.3748V40.9061V42.0169V42.693V43.8521V44.7214V45.3493C14.537 45.4459 18.4489 45.4459 22.8438 45.4459C23.6165 45.4459 24.4375 45.4459 25.2103 45.4459C26.3694 45.4459 27.5285 45.4459 28.6875 45.4459C30.0398 45.4459 31.2955 45.4459 32.4546 45.4459H32.5029C32.6961 45.4459 32.8892 45.4459 33.0824 45.4459C33.4688 45.4459 33.8552 45.4459 34.1932 45.4459C34.9177 45.4459 35.5455 45.4459 35.9802 45.4459C36.2699 45.4459 36.4631 45.4459 36.6563 45.4459C38.733 45.4459 40.7131 45.6873 42.2586 45.1561C42.3552 45.1078 42.4035 45.1078 42.5 45.0595C42.7898 44.9629 43.0313 44.818 43.2728 44.6248C43.466 44.48 43.6591 44.2868 43.8523 44.0936C44.2387 43.6589 44.4802 43.1277 44.625 42.4998C44.6733 42.3067 44.7216 42.0652 44.7699 41.872C44.8182 41.6305 44.8665 41.3408 44.8665 41.051C44.8665 40.8095 44.9148 40.568 44.9148 40.2783V40.23C44.9148 39.9402 44.9148 39.6987 44.9148 39.4089C44.9148 38.9743 44.9148 38.4913 44.9148 38.105C44.9148 37.7186 44.9148 37.3805 44.9148 36.9942C44.9148 36.9459 44.9148 36.8976 44.9148 36.8493V36.1731V35.3521V34.7726V34.193V33.8067V33.0339V31.73V30.8123V30.6192V30.426V28.9288V28.7839C44.9148 28.639 44.9148 28.4942 44.9148 28.301C44.9148 28.2527 44.9148 28.2044 44.9148 28.1078C44.9148 27.818 44.9148 27.5283 44.9148 27.2385C44.9148 27.0936 44.9148 26.9487 44.9148 26.8038V26.7555C44.9148 26.2726 44.8665 25.8379 44.8182 25.4515C44.8182 25.3067 44.7699 25.1618 44.7216 25.0169C44.7216 24.9686 44.7216 24.9203 44.6733 24.872C44.625 24.6788 44.5767 24.4373 44.4802 24.2442C44.1904 23.568 43.7074 23.0368 42.8864 22.6021C42.7415 22.5055 42.5483 22.4572 42.3552 22.4089C42.2586 22.4089 42.2103 22.3606 42.1137 22.3606C42.0654 22.3606 42.0171 22.3606 42.0171 22.3606C40.4716 22.0709 37.9603 22.1192 36.125 22.1675C35.6421 22.1675 35.2074 22.1675 34.8694 22.1675H34.7245L21.9745 22.2158V22.6504V23.9544V24.5339V25.8862V26.4658V27.2385H24.1961H25.0654H33.4205ZM50.662 32.3578C50.662 32.3095 50.662 32.3095 50.662 32.3578ZM50.662 21.105V20.4288V20.2839V19.8976V19.6078V19.1248V17.7243V17.0481V16.8067V16.0339V15.2612V14.73V13.1362V12.2669V11.4459V11.2044V10.3834V9.90041V9.22428V8.06519H33.8069H32.841H11.6875H10.9148H8.01709V9.17598V10.5283V11.7356V13.426V14.1987V16.6135V17.193V19.0765V19.801V19.8493V20.5254V21.5879V21.6362V21.9743V22.3606V23.9544V24.389V24.7271V25.1135V27.6248V28.4459V29.605V30.5226V30.6675V31.4402V32.3095V33.1788V35.3038V35.9317V36.2214V37.3805V37.7669V38.7811V39.6021V40.1817V40.2783V40.9544V45.4459V46.0254V46.122V46.605V46.6532V47.6675V48.3436V49.3095V49.7925V49.8891V50.6135V50.9033H26.6591H29.2671H29.7017H30.716H31.1506H32.1648H35.1591H35.4972H35.787H37.7671H37.9603H39.3608H50.6137V49.5027V48.7783V48.73V48.1987V47.3294V46.3635V45.2044V44.3351V44.0453V43.997V43.9487V42.2584V41.2442V41.051V40.6646V38.4913V36.9459V35.3521V34.4345V34.2896V33.9998V33.8067V33.372V32.3578V31.8265V31.3919V30.426V30.3294V30.0879V29.8947V29.1703V26.6106V25.8862V25.693V24.872V24.389V23.6646V22.3606V21.6362V21.105H50.662Z" fill="#006EA1"/>
</svg>
